<?xml version="1.0" encoding="iso-8859-1"?>
<!-- Generator: Adobe Illustrator 19.0.0, SVG Export Plug-In . SVG Version: 6.00 Build 0)  -->
<svg version="1.1" id="Capa_1" xmlns="http://www.w3.org/2000/svg" xmlns:xlink="http://www.w3.org/1999/xlink" x="0px" y="0px"
	 viewBox="0 0 511.996 511.996" style="enable-background:new 0 0 511.996 511.996;" xml:space="preserve">
<g>
	<g>
		<path d="M494.138,298.736c-10.696-6.367-23.797-4.732-32.599,4.072c-21.937,21.939-57.636,21.939-79.571,0
			c-21.939-21.938-21.939-57.634,0-79.57l58.154-58.154c12.313-12.314,19.035-28.686,18.93-46.102
			c-0.106-17.46-7.054-33.797-19.562-46.002c-0.572-0.56-1.149-1.115-1.727-1.669C388.83,24.434,324.798-0.909,257.329,0.025
			C189.921,0.931,126.531,27.95,78.835,76.103C31.306,124.091,4.991,187.721,4.739,255.273
			c-0.252,67.515,25.546,131.305,72.644,179.616c3.543,3.636,7.222,7.19,10.989,10.623c3.188,2.904,8.132,2.634,10.935-0.642
			c2.659-3.105,2.406-7.779-0.617-10.531c-3.572-3.251-7.059-6.62-10.418-10.067c-44.297-45.44-68.563-105.439-68.326-168.943
			c0.239-63.539,24.99-123.388,69.696-168.524c44.871-45.304,104.496-70.722,167.893-71.576
			c63.435-0.859,123.676,22.964,169.708,67.063c0.543,0.52,1.084,1.041,1.623,1.568c9.577,9.346,14.897,21.852,14.978,35.212
			c0.081,13.318-5.059,25.838-14.476,35.254l-58.154,58.154c-27.867,27.868-27.867,73.211,0,101.079
			c27.869,27.867,73.211,27.868,101.08-0.001c4.683-4.683,10.337-3.978,14.065-1.757c3.737,2.224,7.057,6.869,5.169,13.23
			c-11.429,38.489-32.654,73.868-61.379,102.315c-40.428,40.034-94.055,64.452-151.002,68.752
			c-53.788,4.058-107.4-9.909-151.827-39.422c-3.432-2.28-8.046-1.455-10.433,1.904c-2.478,3.488-1.606,8.354,1.956,10.722
			c41.893,27.846,91.456,42.692,142.011,42.692c6.464,0,12.954-0.243,19.438-0.734c60.545-4.573,117.566-30.537,160.558-73.111
			c30.536-30.24,53.102-67.86,65.256-108.793C509.652,317.418,504.843,305.112,494.138,298.736z"/>
	</g>
</g>
<g>
	<g>
		<path d="M395.025,84.582c-2.451-4.139-8.054-5.039-11.64-1.833c-2.685,2.4-3.361,6.379-1.514,9.469
			c2.939,4.915,4.516,10.561,4.516,16.377c0,17.609-14.326,31.934-31.934,31.934c-18.65,0-33.616-16.07-31.782-35.089
			c1.589-16.471,15.233-28.779,31.781-28.779c2.241,0,4.446,0.227,6.598,0.679c3.535,0.741,7.093-1.159,8.5-4.485l0.004-0.009
			c1.84-4.351-0.672-9.393-5.293-10.373c-3.022-0.64-6.112-0.98-9.249-1.017c-24.199-0.278-44.99,18.134-47.448,42.208
			c-2.879,28.196,19.27,52.074,46.89,52.074c25.994,0,47.142-21.148,47.142-47.142C401.594,100.076,399.301,91.801,395.025,84.582z"
			/>
	</g>
</g>
<g>
	<g>
		<path d="M130.908,310.849c-25.994,0-47.142,21.148-47.142,47.142s21.148,47.142,47.142,47.142s47.142-21.148,47.142-47.142
			S156.902,310.849,130.908,310.849z M130.908,389.925c-17.609,0-31.934-14.326-31.934-31.934s14.326-31.934,31.934-31.934
			c17.609,0,31.934,14.326,31.934,31.934S148.516,389.925,130.908,389.925z"/>
	</g>
</g>
<g>
	<g>
		<path d="M90.292,201.359c-25.994,0-47.142,21.148-47.142,47.142c0,25.994,21.148,47.142,47.142,47.142
			c25.994,0,47.142-21.148,47.142-47.142C137.434,222.507,116.286,201.359,90.292,201.359z M90.292,280.435
			c-17.609,0-31.934-14.326-31.934-31.934c0-17.609,14.326-31.934,31.934-31.934c17.609,0,31.934,14.325,31.934,31.934
			C122.226,266.11,107.9,280.435,90.292,280.435z"/>
	</g>
</g>
<g>
	<g>
		<path d="M138.511,91.868c-25.994,0-47.142,21.148-47.142,47.142s21.148,47.142,47.142,47.142
			c25.994,0,47.142-21.149,47.142-47.142C185.653,113.016,164.505,91.868,138.511,91.868z M138.511,170.944
			c-17.609,0-31.934-14.326-31.934-31.934c0-17.609,14.326-31.934,31.934-31.934c17.609,0,31.934,14.326,31.934,31.934
			C170.445,156.619,156.119,170.944,138.511,170.944z"/>
	</g>
</g>
<g>
	<g>
		<path d="M239.233,34.08c-25.994,0-47.142,21.148-47.142,47.142s21.148,47.142,47.142,47.142c25.994,0,47.142-21.148,47.142-47.142
			S265.227,34.08,239.233,34.08z M239.233,113.157c-17.609,0-31.934-14.325-31.934-31.934c0-17.609,14.326-31.934,31.934-31.934
			s31.934,14.326,31.934,31.934C271.167,98.831,256.841,113.157,239.233,113.157z"/>
	</g>
</g>
<g>
	<g>
		<path d="M349.731,332.702c-25.994,0-47.142,21.148-47.142,47.142c0,25.994,21.148,47.142,47.142,47.142
			s47.142-21.148,47.142-47.142C396.873,353.85,375.725,332.702,349.731,332.702z M349.731,411.778
			c-17.609,0-31.934-14.326-31.934-31.934c0-17.609,14.326-31.934,31.934-31.934c17.609,0,31.934,14.326,31.934,31.934
			C381.665,397.452,367.339,411.778,349.731,411.778z"/>
	</g>
</g>
<g>
</g>
<g>
</g>
<g>
</g>
<g>
</g>
<g>
</g>
<g>
</g>
<g>
</g>
<g>
</g>
<g>
</g>
<g>
</g>
<g>
</g>
<g>
</g>
<g>
</g>
<g>
</g>
<g>
</g>
</svg>
